<?xml version="1.0" encoding="UTF-8" standalone="no"?>
<!DOCTYPE svg PUBLIC "-//W3C//DTD SVG 1.1//EN"
 "http://www.w3.org/Graphics/SVG/1.1/DTD/svg11.dtd">
<!-- Generated by graphviz version 2.40.1 (20161225.0304)
 -->
<!-- Title: G Pages: 1 -->
<svg width="683pt" height="474pt"
 viewBox="0.00 0.00 683.45 474.00" xmlns="http://www.w3.org/2000/svg" xmlns:xlink="http://www.w3.org/1999/xlink">
<g id="graph0" class="graph" transform="scale(1 1) rotate(0) translate(4 470)">
<title>G</title>
<polygon fill="#ffffff" stroke="transparent" points="-4,4 -4,-470 679.4525,-470 679.4525,4 -4,4"/>
<!-- A0 -->
<g id="node1" class="node">
<title>A0</title>
<polygon fill="none" stroke="#000000" points="312.7548,-208 242.1502,-208 242.1502,-172 312.7548,-172 312.7548,-208"/>
<text text-anchor="middle" x="277.4525" y="-187" font-family="Helvetica,sans-Serif" font-size="10.00" fill="#000000">&lt;&lt;Item&gt;&gt;</text>
</g>
<!-- A1 -->
<g id="node2" class="node">
<title>A1</title>
<polygon fill="none" stroke="#000000" points="305.7976,-122 249.1074,-122 249.1074,-86 305.7976,-86 305.7976,-122"/>
<text text-anchor="middle" x="277.4525" y="-101" font-family="Helvetica,sans-Serif" font-size="10.00" fill="#000000">Potion</text>
</g>
<!-- A0&#45;&gt;A1 -->
<g id="edge1" class="edge">
<title>A0&#45;&gt;A1</title>
<path fill="none" stroke="#000000" stroke-dasharray="5,2" d="M277.4525,-161.4762C277.4525,-148.5329 277.4525,-133.6086 277.4525,-122.2121"/>
<polygon fill="none" stroke="#000000" points="273.9526,-161.7616 277.4525,-171.7616 280.9526,-161.7616 273.9526,-161.7616"/>
</g>
<!-- A2 -->
<g id="node3" class="node">
<title>A2</title>
<polygon fill="none" stroke="#000000" points="377.4525,-122 323.4525,-122 323.4525,-86 377.4525,-86 377.4525,-122"/>
<text text-anchor="middle" x="350.4525" y="-101" font-family="Helvetica,sans-Serif" font-size="10.00" fill="#000000">Gold</text>
</g>
<!-- A0&#45;&gt;A2 -->
<g id="edge2" class="edge">
<title>A0&#45;&gt;A2</title>
<path fill="none" stroke="#000000" stroke-dasharray="5,2" d="M299.7062,-163.7834C311.1203,-150.3365 324.7392,-134.2924 334.9934,-122.2121"/>
<polygon fill="none" stroke="#000000" points="296.737,-161.8728 292.9339,-171.7616 302.0736,-166.4028 296.737,-161.8728"/>
</g>
<!-- A3 -->
<g id="node4" class="node">
<title>A3</title>
<polygon fill="none" stroke="#000000" points="518.1046,-466 388.8004,-466 388.8004,-430 518.1046,-430 518.1046,-466"/>
<text text-anchor="middle" x="453.4525" y="-445" font-family="Helvetica,sans-Serif" font-size="10.00" fill="#000000">&lt;&lt;CharacterStategy&gt;&gt;</text>
</g>
<!-- A4 -->
<g id="node5" class="node">
<title>A4</title>
<polygon fill="none" stroke="#000000" points="389.8585,-380 293.0465,-380 293.0465,-344 389.8585,-344 389.8585,-380"/>
<text text-anchor="middle" x="341.4525" y="-359" font-family="Helvetica,sans-Serif" font-size="10.00" fill="#000000">DefaultStrategy</text>
</g>
<!-- A3&#45;&gt;A4 -->
<g id="edge3" class="edge">
<title>A3&#45;&gt;A4</title>
<path fill="none" stroke="#000000" stroke-dasharray="5,2" d="M421.9844,-423.837C403.8628,-409.9222 381.4696,-392.7274 364.9005,-380.0047"/>
<polygon fill="none" stroke="#000000" points="419.9105,-426.6573 429.9736,-429.9716 424.1737,-421.1052 419.9105,-426.6573"/>
</g>
<!-- A5 -->
<g id="node6" class="node">
<title>A5</title>
<polygon fill="none" stroke="#000000" points="498.7298,-380 408.1752,-380 408.1752,-344 498.7298,-344 498.7298,-380"/>
<text text-anchor="middle" x="453.4525" y="-359" font-family="Helvetica,sans-Serif" font-size="10.00" fill="#000000">NoHealthLimit</text>
</g>
<!-- A3&#45;&gt;A5 -->
<g id="edge4" class="edge">
<title>A3&#45;&gt;A5</title>
<path fill="none" stroke="#000000" stroke-dasharray="5,2" d="M453.4525,-419.4762C453.4525,-406.5329 453.4525,-391.6086 453.4525,-380.2121"/>
<polygon fill="none" stroke="#000000" points="449.9526,-419.7616 453.4525,-429.7616 456.9526,-419.7616 449.9526,-419.7616"/>
</g>
<!-- A6 -->
<g id="node7" class="node">
<title>A6</title>
<polygon fill="none" stroke="#000000" points="626.0776,-380 516.8274,-380 516.8274,-344 626.0776,-344 626.0776,-380"/>
<text text-anchor="middle" x="571.4525" y="-359" font-family="Helvetica,sans-Serif" font-size="10.00" fill="#000000">StrategyDecorator</text>
</g>
<!-- A3&#45;&gt;A6 -->
<g id="edge5" class="edge">
<title>A3&#45;&gt;A6</title>
<path fill="none" stroke="#000000" stroke-dasharray="5,2" d="M486.3487,-424.0248C505.4861,-410.0772 529.213,-392.7847 546.7484,-380.0047"/>
<polygon fill="none" stroke="#000000" points="484.2092,-421.2532 478.1892,-429.9716 488.3321,-426.9102 484.2092,-421.2532"/>
</g>
<!-- A7 -->
<g id="node8" class="node">
<title>A7</title>
<polygon fill="none" stroke="#000000" points="521.7259,-294 461.1791,-294 461.1791,-258 521.7259,-258 521.7259,-294"/>
<text text-anchor="middle" x="491.4525" y="-273" font-family="Helvetica,sans-Serif" font-size="10.00" fill="#000000">Allergic</text>
</g>
<!-- A6&#45;&gt;A7 -->
<g id="edge6" class="edge">
<title>A6&#45;&gt;A7</title>
<path fill="none" stroke="#000000" d="M547.4183,-336.1632C534.8382,-322.6396 519.7375,-306.4064 508.394,-294.2121"/>
<polygon fill="none" stroke="#000000" points="545.1128,-338.8236 554.4866,-343.7616 550.2382,-334.0558 545.1128,-338.8236"/>
</g>
<!-- A8 -->
<g id="node9" class="node">
<title>A8</title>
<polygon fill="none" stroke="#000000" points="603.5646,-294 539.3404,-294 539.3404,-258 603.5646,-258 603.5646,-294"/>
<text text-anchor="middle" x="571.4525" y="-273" font-family="Helvetica,sans-Serif" font-size="10.00" fill="#000000">StayStill</text>
</g>
<!-- A6&#45;&gt;A8 -->
<g id="edge7" class="edge">
<title>A6&#45;&gt;A8</title>
<path fill="none" stroke="#000000" d="M571.4525,-333.4762C571.4525,-320.5329 571.4525,-305.6086 571.4525,-294.2121"/>
<polygon fill="none" stroke="#000000" points="567.9526,-333.7616 571.4525,-343.7616 574.9526,-333.7616 567.9526,-333.7616"/>
</g>
<!-- A9 -->
<g id="node10" class="node">
<title>A9</title>
<polygon fill="none" stroke="#000000" points="675.4525,-294 621.4525,-294 621.4525,-258 675.4525,-258 675.4525,-294"/>
<text text-anchor="middle" x="648.4525" y="-273" font-family="Helvetica,sans-Serif" font-size="10.00" fill="#000000">....</text>
</g>
<!-- A6&#45;&gt;A9 -->
<g id="edge8" class="edge">
<title>A6&#45;&gt;A9</title>
<path fill="none" stroke="#000000" d="M594.5854,-336.1632C606.6938,-322.6396 621.2282,-306.4064 632.1463,-294.2121"/>
<polygon fill="none" stroke="#000000" points="591.8452,-333.9768 587.7822,-343.7616 597.0603,-338.6461 591.8452,-333.9768"/>
</g>
<!-- A10 -->
<g id="node11" class="node">
<title>A10</title>
<polygon fill="none" stroke="#000000" points="217.2008,-208 121.7042,-208 121.7042,-172 217.2008,-172 217.2008,-208"/>
<text text-anchor="middle" x="169.4525" y="-187" font-family="Helvetica,sans-Serif" font-size="10.00" fill="#000000">&lt;&lt;Character&gt;&gt;</text>
</g>
<!-- A11 -->
<g id="node12" class="node">
<title>A11</title>
<polygon fill="none" stroke="#000000" points="231.9016,-122 139.0034,-122 139.0034,-86 231.9016,-86 231.9016,-122"/>
<text text-anchor="middle" x="185.4525" y="-101" font-family="Helvetica,sans-Serif" font-size="10.00" fill="#000000">RealCharacter</text>
</g>
<!-- A10&#45;&gt;A11 -->
<g id="edge9" class="edge">
<title>A10&#45;&gt;A11</title>
<path fill="none" stroke="#000000" stroke-dasharray="5,2" d="M174.6871,-161.8639C177.1117,-148.8318 179.9227,-133.7226 182.0642,-122.2121"/>
<polygon fill="none" stroke="#000000" points="171.2339,-161.2901 172.8457,-171.7616 178.1158,-162.5705 171.2339,-161.2901"/>
</g>
<!-- A12 -->
<g id="node13" class="node">
<title>A12</title>
<polygon fill="none" stroke="#000000" points="121.6798,-122 21.2252,-122 21.2252,-86 121.6798,-86 121.6798,-122"/>
<text text-anchor="middle" x="71.4525" y="-101" font-family="Helvetica,sans-Serif" font-size="10.00" fill="#000000">PlayerCharacter</text>
</g>
<!-- A10&#45;&gt;A12 -->
<g id="edge10" class="edge">
<title>A10&#45;&gt;A12</title>
<path fill="none" stroke="#000000" stroke-dasharray="5,2" d="M140.8715,-164.9187C125.2931,-151.2479 106.3614,-134.6343 92.2058,-122.2121"/>
<polygon fill="none" stroke="#000000" points="138.8444,-167.7964 148.6692,-171.7616 143.4615,-162.535 138.8444,-167.7964"/>
</g>
<!-- A13 -->
<g id="node14" class="node">
<title>A13</title>
<polygon fill="none" stroke="#000000" points="56.8576,-36 .0474,-36 .0474,0 56.8576,0 56.8576,-36"/>
<text text-anchor="middle" x="28.4525" y="-15" font-family="Helvetica,sans-Serif" font-size="10.00" fill="#000000">Shade</text>
</g>
<!-- A11&#45;&gt;A13 -->
<g id="edge11" class="edge">
<title>A11&#45;&gt;A13</title>
<path fill="none" stroke="#000000" d="M143.5916,-81.0699C116.2632,-66.1001 81.2971,-46.9467 57.1046,-33.6948"/>
<polygon fill="none" stroke="#000000" points="142.0883,-84.237 152.5402,-85.9716 145.4512,-78.0977 142.0883,-84.237"/>
</g>
<!-- A14 -->
<g id="node15" class="node">
<title>A14</title>
<polygon fill="none" stroke="#000000" points="140.1759,-36 74.7291,-36 74.7291,0 140.1759,0 140.1759,-36"/>
<text text-anchor="middle" x="107.4525" y="-15" font-family="Helvetica,sans-Serif" font-size="10.00" fill="#000000">Vampire</text>
</g>
<!-- A11&#45;&gt;A14 -->
<g id="edge12" class="edge">
<title>A11&#45;&gt;A14</title>
<path fill="none" stroke="#000000" d="M162.0192,-78.1632C149.7536,-64.6396 135.0304,-48.4064 123.9704,-36.2121"/>
<polygon fill="none" stroke="#000000" points="159.6,-80.7058 168.9107,-85.7616 164.7851,-76.003 159.6,-80.7058"/>
</g>
<!-- A15 -->
<g id="node16" class="node">
<title>A15</title>
<polygon fill="none" stroke="#000000" points="212.4525,-36 158.4525,-36 158.4525,0 212.4525,0 212.4525,-36"/>
<text text-anchor="middle" x="185.4525" y="-15" font-family="Helvetica,sans-Serif" font-size="10.00" fill="#000000">...</text>
</g>
<!-- A11&#45;&gt;A15 -->
<g id="edge13" class="edge">
<title>A11&#45;&gt;A15</title>
<path fill="none" stroke="#000000" d="M185.4525,-75.4762C185.4525,-62.5329 185.4525,-47.6086 185.4525,-36.2121"/>
<polygon fill="none" stroke="#000000" points="181.9526,-75.7616 185.4525,-85.7616 188.9526,-75.7616 181.9526,-75.7616"/>
</g>
<!-- A16 -->
<g id="node17" class="node">
<title>A16</title>
<polygon fill="none" stroke="#000000" points="290.6779,-36 230.2271,-36 230.2271,0 290.6779,0 290.6779,-36"/>
<text text-anchor="middle" x="260.4525" y="-15" font-family="Helvetica,sans-Serif" font-size="10.00" fill="#000000">Human</text>
</g>
<!-- A11&#45;&gt;A16 -->
<g id="edge14" class="edge">
<title>A11&#45;&gt;A16</title>
<path fill="none" stroke="#000000" d="M207.9846,-78.1632C219.7784,-64.6396 233.9353,-48.4064 244.5699,-36.2121"/>
<polygon fill="none" stroke="#000000" points="205.2929,-75.9245 201.3581,-85.7616 210.5686,-80.5254 205.2929,-75.9245"/>
</g>
<!-- A17 -->
<g id="node18" class="node">
<title>A17</title>
<polygon fill="none" stroke="#000000" points="369.7369,-36 309.1681,-36 309.1681,0 369.7369,0 369.7369,-36"/>
<text text-anchor="middle" x="339.4525" y="-15" font-family="Helvetica,sans-Serif" font-size="10.00" fill="#000000">Dragon</text>
</g>
<!-- A11&#45;&gt;A17 -->
<g id="edge15" class="edge">
<title>A11&#45;&gt;A17</title>
<path fill="none" stroke="#000000" d="M226.5925,-81.0257C252.5315,-66.5403 285.4609,-48.1512 309.045,-34.9808"/>
<polygon fill="none" stroke="#000000" points="224.7603,-78.0401 217.7359,-85.9716 228.1733,-84.1517 224.7603,-78.0401"/>
</g>
<!-- A18 -->
<g id="node19" class="node">
<title>A18</title>
<polygon fill="none" stroke="#000000" points="196.4525,-380 142.4525,-380 142.4525,-344 196.4525,-344 196.4525,-380"/>
<text text-anchor="middle" x="169.4525" y="-359" font-family="Helvetica,sans-Serif" font-size="10.00" fill="#000000">Floor</text>
</g>
<!-- A19 -->
<g id="node20" class="node">
<title>A19</title>
<polygon fill="none" stroke="#000000" points="276.4525,-294 222.4525,-294 222.4525,-258 276.4525,-258 276.4525,-294"/>
<text text-anchor="middle" x="249.4525" y="-273" font-family="Helvetica,sans-Serif" font-size="10.00" fill="#000000">Path</text>
</g>
<!-- A18&#45;&gt;A19 -->
<g id="edge16" class="edge">
<title>A18&#45;&gt;A19</title>
<path fill="none" stroke="#000000" d="M194.9078,-334.6356C207.1906,-321.4316 221.5916,-305.9505 232.511,-294.2121"/>
<polygon fill="none" stroke="#000000" points="194.5917,-334.9753 193.4338,-342.0929 186.4184,-343.7616 187.5763,-336.6441 194.5917,-334.9753"/>
</g>
<!-- A20 -->
<g id="node21" class="node">
<title>A20</title>
<polygon fill="none" stroke="#000000" points="204.0656,-294 134.8394,-294 134.8394,-258 204.0656,-258 204.0656,-294"/>
<text text-anchor="middle" x="169.4525" y="-273" font-family="Helvetica,sans-Serif" font-size="10.00" fill="#000000">Chamber</text>
</g>
<!-- A18&#45;&gt;A20 -->
<g id="edge17" class="edge">
<title>A18&#45;&gt;A20</title>
<path fill="none" stroke="#000000" d="M169.4525,-331.5205C169.4525,-319.0493 169.4525,-305.0388 169.4525,-294.2121"/>
<polygon fill="none" stroke="#000000" points="169.4526,-331.7616 173.4525,-337.7616 169.4525,-343.7616 165.4525,-337.7616 169.4526,-331.7616"/>
</g>
<!-- A20&#45;&gt;A0 -->
<g id="edge18" class="edge">
<title>A20&#45;&gt;A0</title>
<path fill="none" stroke="#000000" d="M201.7015,-250.3202C218.8202,-236.6887 239.4404,-220.2689 254.842,-208.0047"/>
<polygon fill="none" stroke="#000000" points="201.4802,-250.4964 199.2782,-257.3631 192.0928,-257.9716 194.2948,-251.1049 201.4802,-250.4964"/>
</g>
<!-- A20&#45;&gt;A10 -->
<g id="edge19" class="edge">
<title>A20&#45;&gt;A10</title>
<path fill="none" stroke="#000000" d="M169.4525,-245.5205C169.4525,-233.0493 169.4525,-219.0388 169.4525,-208.2121"/>
<polygon fill="none" stroke="#000000" points="169.4526,-245.7616 173.4525,-251.7616 169.4525,-257.7616 165.4525,-251.7616 169.4526,-245.7616"/>
</g>
<!-- A21 -->
<g id="node22" class="node">
<title>A21</title>
<polygon fill="none" stroke="#000000" points="197.179,-466 141.726,-466 141.726,-430 197.179,-430 197.179,-466"/>
<text text-anchor="middle" x="169.4525" y="-445" font-family="Helvetica,sans-Serif" font-size="10.00" fill="#000000">Game</text>
</g>
<!-- A21&#45;&gt;A12 -->
<g id="edge20" class="edge">
<title>A21&#45;&gt;A12</title>
<path fill="none" stroke="#000000" d="M152.0696,-419.2839C145.4885,-407.447 138.3994,-393.3884 133.4525,-380 98.814,-286.2542 80.0675,-167.145 73.8352,-122.2342"/>
<polygon fill="none" stroke="#000000" points="152.1645,-419.4494 158.6202,-422.6625 158.1372,-429.8575 151.6815,-426.6443 152.1645,-419.4494"/>
</g>
<!-- A21&#45;&gt;A18 -->
<g id="edge21" class="edge">
<title>A21&#45;&gt;A18</title>
<path fill="none" stroke="#000000" d="M169.4525,-417.5205C169.4525,-405.0493 169.4525,-391.0388 169.4525,-380.2121"/>
<polygon fill="none" stroke="#000000" points="169.4526,-417.7616 173.4525,-423.7616 169.4525,-429.7616 165.4525,-423.7616 169.4526,-417.7616"/>
</g>
<!-- A22 -->
<g id="node23" class="node">
<title>A22</title>
<polygon fill="none" stroke="#000000" points="274.7279,-380 214.1771,-380 214.1771,-344 274.7279,-344 274.7279,-380"/>
<text text-anchor="middle" x="244.4525" y="-359" font-family="Helvetica,sans-Serif" font-size="10.00" fill="#000000">Display</text>
</g>
<!-- A21&#45;&gt;A22 -->
<g id="edge22" class="edge">
<title>A21&#45;&gt;A22</title>
<path fill="none" stroke="#000000" d="M193.3168,-420.6356C204.8319,-407.4316 218.3329,-391.9505 228.5699,-380.2121"/>
<polygon fill="none" stroke="#000000" points="193.2453,-420.7177 192.3163,-427.8687 185.3581,-429.7616 186.287,-422.6106 193.2453,-420.7177"/>
</g>
</g>
</svg>
